<svg xmlns="http://www.w3.org/2000/svg" xmlns:xlink="http://www.w3.org/1999/xlink" viewBox="0.0 0.0 1260.0 647.1191480799438">  <g transform="matrix( 1.0 0.0 0.0 1.0 30.0 30.0 )">  <g transform="matrix( 100.0 0.0 0.0 100.0 0.0 0.0 )">  <g transform="matrix( 1.0 0.0 0.0 1.0 0.0 1.0 )">  <rect fill="#c8c832" stroke="#000000" stroke-width="0.1" x="0.0" y="0.0" width="1.0" height="1.0"/></g>
      <g transform="matrix( 1.0 0.0 0.0 1.0 1.0 0.5 )">  <rect fill="#c8c832" stroke="#000000" stroke-width="0.1" x="0.0" y="0.0" width="1.0" height="1.0"/></g>
      <g transform="matrix( 1.0 0.0 0.0 1.0 2.0 0.0 )">  <rect fill="#c8c832" stroke="#000000" stroke-width="0.1" x="0.0" y="0.0" width="1.0" height="1.0"/></g>
      <g transform="matrix( 1.0 0.0 0.0 1.0 3.0 0.5 )">  <rect fill="#c8c832" stroke="#000000" stroke-width="0.1" x="0.0" y="0.0" width="1.0" height="1.0"/></g>
      <g transform="matrix( 1.0 0.0 0.0 1.0 4.0 1.0 )">  <rect fill="#c8c832" stroke="#000000" stroke-width="0.1" x="0.0" y="0.0" width="1.0" height="1.0"/></g>
      <g transform="matrix( 1.0 0.0 0.0 1.0 7.0 1.0 )">  <rect fill="#c8c832" stroke="#000000" stroke-width="0.1" x="0.0" y="0.0" width="1.0" height="1.0"/></g>
      <g transform="matrix( 1.0 0.0 0.0 1.0 8.0 0.5 )">  <rect fill="#c8c832" stroke="#000000" stroke-width="0.1" x="0.0" y="0.0" width="1.0" height="1.0"/></g>
      <g transform="matrix( 1.0 0.0 0.0 1.0 9.0 0.0 )">  <rect fill="#c8c832" stroke="#000000" stroke-width="0.1" x="0.0" y="0.0" width="1.0" height="1.0"/></g>
      <g transform="matrix( 1.0 0.0 0.0 1.0 10.0 0.5 )">  <rect fill="#c8c832" stroke="#000000" stroke-width="0.1" x="0.0" y="0.0" width="1.0" height="1.0"/></g>
      <g transform="matrix( 1.0 0.0 0.0 1.0 11.0 1.0 )">  <rect fill="#c8c832" stroke="#000000" stroke-width="0.1" x="0.0" y="0.0" width="1.0" height="1.0"/></g>
      <g transform="matrix( 1.0 0.0 0.0 1.0 0.0 2.0 )">  <rect fill="#c8c832" stroke="#000000" stroke-width="0.1" x="0.0" y="0.0" width="1.0" height="1.0"/></g>
      <g transform="matrix( 1.0 0.0 0.0 1.0 1.0 1.5 )">  <rect fill="#c8c832" stroke="#000000" stroke-width="0.1" x="0.0" y="0.0" width="1.0" height="1.0"/></g>
      <g transform="matrix( 1.0 0.0 0.0 1.0 2.0 1.0 )">  <rect fill="#c8c832" stroke="#000000" stroke-width="0.1" x="0.0" y="0.0" width="1.0" height="1.0"/></g>
      <g transform="matrix( 1.0 0.0 0.0 1.0 3.0 1.5 )">  <rect fill="#c8c832" stroke="#000000" stroke-width="0.1" x="0.0" y="0.0" width="1.0" height="1.0"/></g>
      <g transform="matrix( 1.0 0.0 0.0 1.0 4.0 2.0 )">  <rect fill="#c8c832" stroke="#000000" stroke-width="0.1" x="0.0" y="0.0" width="1.0" height="1.0"/></g>
      <g transform="matrix( 1.0 0.0 0.0 1.0 7.0 2.0 )">  <rect fill="#c8c832" stroke="#000000" stroke-width="0.1" x="0.0" y="0.0" width="1.0" height="1.0"/></g>
      <g transform="matrix( 1.0 0.0 0.0 1.0 8.0 1.5 )">  <rect fill="#c8c832" stroke="#000000" stroke-width="0.1" x="0.0" y="0.0" width="1.0" height="1.0"/></g>
      <g transform="matrix( 1.0 0.0 0.0 1.0 9.0 1.0 )">  <rect fill="#c8c832" stroke="#000000" stroke-width="0.1" x="0.0" y="0.0" width="1.0" height="1.0"/></g>
      <g transform="matrix( 1.0 0.0 0.0 1.0 10.0 1.5 )">  <rect fill="#c8c832" stroke="#000000" stroke-width="0.1" x="0.0" y="0.0" width="1.0" height="1.0"/></g>
      <g transform="matrix( 1.0 0.0 0.0 1.0 11.0 2.0 )">  <rect fill="#c8c832" stroke="#000000" stroke-width="0.1" x="0.0" y="0.0" width="1.0" height="1.0"/></g>
      <g transform="matrix( 1.0 0.0 0.0 1.0 0.0 3.0 )">  <rect fill="#c8c832" stroke="#000000" stroke-width="0.1" x="0.0" y="0.0" width="1.0" height="1.0"/></g>
      <g transform="matrix( 1.0 0.0 0.0 1.0 1.0 2.5 )">  <rect fill="#c8c832" stroke="#000000" stroke-width="0.1" x="0.0" y="0.0" width="1.0" height="1.0"/></g>
      <g transform="matrix( 1.0 0.0 0.0 1.0 2.0 2.0 )">  <rect fill="#c8c832" stroke="#000000" stroke-width="0.1" x="0.0" y="0.0" width="1.0" height="1.0"/></g>
      <g transform="matrix( 1.0 0.0 0.0 1.0 3.0 2.5 )">  <rect fill="#c8c832" stroke="#000000" stroke-width="0.1" x="0.0" y="0.0" width="1.0" height="1.0"/></g>
      <g transform="matrix( 1.0 0.0 0.0 1.0 4.0 3.0 )">  <rect fill="#c8c832" stroke="#000000" stroke-width="0.1" x="0.0" y="0.0" width="1.0" height="1.0"/></g>
      <g transform="matrix( 1.0 0.0 0.0 1.0 7.0 3.0 )">  <rect fill="#c8c832" stroke="#000000" stroke-width="0.1" x="0.0" y="0.0" width="1.0" height="1.0"/></g>
      <g transform="matrix( 1.0 0.0 0.0 1.0 8.0 2.5 )">  <rect fill="#c8c832" stroke="#000000" stroke-width="0.1" x="0.0" y="0.0" width="1.0" height="1.0"/></g>
      <g transform="matrix( 1.0 0.0 0.0 1.0 9.0 2.0 )">  <rect fill="#c8c832" stroke="#000000" stroke-width="0.1" x="0.0" y="0.0" width="1.0" height="1.0"/></g>
      <g transform="matrix( 1.0 0.0 0.0 1.0 10.0 2.5 )">  <rect fill="#c8c832" stroke="#000000" stroke-width="0.1" x="0.0" y="0.0" width="1.0" height="1.0"/></g>
      <g transform="matrix( 1.0 0.0 0.0 1.0 11.0 3.0 )">  <rect fill="#c8c832" stroke="#000000" stroke-width="0.1" x="0.0" y="0.0" width="1.0" height="1.0"/></g>
      <g transform="matrix( 0.9659258262888482 0.25881904510334236 -0.25881904510334236 0.9659258262888482 3.646446609407247 4.387627564303905 )">  <rect fill="#c8c832" stroke="#000000" stroke-width="0.1" x="0.0" y="0.0" width="1.0" height="1.0"/></g>
      <g transform="matrix( 0.9659258262888482 0.25881904510334236 -0.25881904510334236 0.9659258262888482 4.612372435696095 4.646446609407247 )">  <rect fill="#c8c832" stroke="#000000" stroke-width="0.1" x="0.0" y="0.0" width="1.0" height="1.0"/></g>
      <g transform="matrix( 0.9659258262888482 -0.25881904510334236 0.25881904510334236 0.9659258262888482 6.421701738015057 4.90526565451059 )">  <rect fill="#c8c832" stroke="#000000" stroke-width="0.1" x="0.0" y="0.0" width="1.0" height="1.0"/></g>
      <g transform="matrix( 0.9659258262888482 -0.25881904510334236 0.25881904510334236 0.9659258262888482 7.387627564303905 4.646446609407247 )">  <rect fill="#c8c832" stroke="#000000" stroke-width="0.1" x="0.0" y="0.0" width="1.0" height="1.0"/></g></g></g>
  </svg>